<svg xmlns="http://www.w3.org/2000/svg" xmlns:xlink="http://www.w3.org/1999/xlink" width="500" zoomAndPan="magnify" viewBox="0 0 375 374.999991" height="500" preserveAspectRatio="xMidYMid meet" version="1.0"><defs><g/></defs><g fill="#ffffff" fill-opacity="1"><g transform="translate(49.823435, 318.825262)"><g><path d="M 62.890625 -43.640625 C 62.890625 -37.609375 64.003906 -31.90625 66.234375 -26.53125 C 68.460938 -21.15625 71.539062 -16.503906 75.46875 -12.578125 C 79.40625 -8.648438 83.992188 -5.570312 89.234375 -3.34375 C 94.472656 -1.113281 100.109375 0 106.140625 0 L 9.828125 0 C 15.585938 -0.78125 21.15625 -2.613281 26.53125 -5.5 C 31.90625 -8.382812 36.953125 -11.988281 41.671875 -16.3125 C 46.390625 -20.632812 50.582031 -25.414062 54.25 -30.65625 C 57.914062 -35.90625 60.796875 -41.28125 62.890625 -46.78125 Z M 138.375 0 C 143.875 0 148.585938 -2.289062 152.515625 -6.875 C 156.453125 -11.46875 158.421875 -16.644531 158.421875 -22.40625 C 158.421875 -23.457031 158.421875 -24.503906 158.421875 -25.546875 C 158.421875 -26.597656 158.160156 -27.648438 157.640625 -28.703125 L 146.234375 -61.71875 L 145.453125 -64.078125 L 117.546875 -144.671875 C 115.703125 -149.117188 112.425781 -151.34375 107.71875 -151.34375 C 103.257812 -151.34375 100.113281 -149.117188 98.28125 -144.671875 L 145.453125 -275.171875 L 189.078125 -149.78125 C 190.921875 -144.53125 193.019531 -138.300781 195.375 -131.09375 C 197.726562 -123.894531 199.828125 -117.671875 201.671875 -112.421875 L 233.90625 -20.4375 C 235.738281 -15.195312 238.945312 -10.476562 243.53125 -6.28125 C 248.113281 -2.09375 253.421875 0 259.453125 0 Z M 138.375 0 "/></g></g></g></svg>